<?xml version="1.0" standalone="no"?><!DOCTYPE svg PUBLIC "-//W3C//DTD SVG 1.1//EN" "http://www.w3.org/Graphics/SVG/1.1/DTD/svg11.dtd"><svg t="1677733674496" class="icon" viewBox="0 0 1024 1024" version="1.1" xmlns="http://www.w3.org/2000/svg" p-id="4466" xmlns:xlink="http://www.w3.org/1999/xlink" width="200" height="200"><path d="M496.932571 146.919619c103.619048 0 187.977143 105.520762 187.977143 235.276191 0 65.974857-22.332952 129.26781-61.244952 173.641142a240.347429 240.347429 0 0 1-13.507048 13.897143c-11.946667 13.507048-17.359238 26.136381-17.359238 39.497143 0 31.061333 31.305143 61.927619 82.407619 82.16381l9.849905 3.657142c9.069714 3.169524 19.017143 5.851429 28.867048 8.484572l5.461333 1.316571c120.295619 42.471619 191.634286 115.273143 191.634286 194.998857 0 11.702857-8.43581 21.455238-19.602286 23.405715l-4.242286 0.438857H102.692571a23.844571 23.844571 0 0 1-23.844571-23.893333c0-83.236571 76.361143-157.598476 204.068571-198.656a408.624762 408.624762 0 0 1 20.284953-6.095239l6.826666-1.755428c57.246476-19.260952 92.793905-50.858667 92.793905-82.602667 0-16.042667-8.777143-29.500952-17.310476-38.814476l-3.657143-3.754667c-46.372571-44.617143-72.996571-112.249905-72.996571-186.026666 0-129.706667 84.504381-235.178667 188.074666-235.178667z m-4.632381 463.286857L426.666667 790.235429l65.584762 84.699428 70.899809-84.699428-70.899809-180.028953z" p-id="4467" fill="#99999a"></path></svg>